<svg width="434" height="102" viewBox="0 0 434 102" fill="none" xmlns="http://www.w3.org/2000/svg">
<path d="M21.6799 29.0103V33.9641H24.4176C26.325 33.9641 27.3691 32.7937 27.3691 31.4089C27.3691 30.0654 26.325 29.0103 24.4176 29.0103H21.6799Z" fill="#1C376E"/>
<path fill-rule="evenodd" clip-rule="evenodd" d="M48.1685 13.9912L24.0843 0L0 13.9912V41.9735L24.0843 55.9647L48.1685 41.9735V13.9912ZM24.4176 36.8325H18.1199V19.9517H29.293V22.8943H21.6799V26.1913H24.4176C28.4133 26.1913 30.8962 28.2438 30.8962 31.4419C30.8962 34.6318 28.4133 36.8325 24.4176 36.8325Z" fill="#1C376E"/>
<path fill-rule="evenodd" clip-rule="evenodd" d="M74.7258 60.0265L50.6415 46.0353L26.5572 60.0265V88.0088L50.6415 102L74.7258 88.0088V60.0265ZM45.4933 65.9873H56.6663V68.9299H49.0532V82.8681H45.4933V65.9873Z" fill="#1C376E"/>
<path fill-rule="evenodd" clip-rule="evenodd" d="M127.844 60.0265L103.76 46.0353L79.6759 60.0265V88.0088L103.76 102L127.844 88.0088V60.0265ZM96.9542 65.9873H110.799V82.8681H107.28V68.8887H100.473V82.8681H96.9542V65.9873Z" fill="#1C376E"/>
<path fill-rule="evenodd" clip-rule="evenodd" d="M101.287 13.9912L77.2029 0L53.1187 13.9912V41.9735L77.2029 55.9647L101.287 41.9735V13.9912ZM75.5647 22.8943H70.4098V19.9517H84.2383V22.8943H79.0835V36.8325H75.5647V22.8943Z" fill="#1C376E"/>
<path d="M150.14 9.12114H161.579V11.3626H152.584V16.2105H156.354C158.52 16.2105 160.149 16.7231 161.241 17.7483C162.333 18.7561 162.879 20.1114 162.879 21.8143C162.879 23.5519 162.342 24.9159 161.267 25.9063C160.21 26.8794 158.572 27.3659 156.354 27.3659H150.14V9.12114ZM152.584 18.452V25.1244H156.354C157.758 25.1244 158.772 24.8377 159.395 24.2643C160.037 23.6909 160.357 22.8742 160.357 21.8143C160.357 20.7543 160.037 19.929 159.395 19.3382C158.754 18.7474 157.74 18.452 156.354 18.452H152.584Z" fill="#1C376E"/>
<path d="M168.529 27.3659L163.277 14.3339H165.825L169.777 24.4207L173.52 14.3339H176.016L169.023 32.5787H166.527L168.529 27.3659Z" fill="#1C376E"/>
<path d="M187.183 17.1228L185.753 19.8074L181.359 27.3659H178.343V14.3339H180.683V24.5771L182.113 21.8925L186.507 14.3339H189.522V27.3659H187.183V17.1228ZM183.933 12.718C182.789 12.718 181.896 12.4052 181.255 11.7797C180.614 11.1367 180.293 10.2506 180.293 9.12114H182.321C182.321 9.7988 182.46 10.3027 182.737 10.6328C183.032 10.9456 183.43 11.102 183.933 11.102C184.453 11.102 184.86 10.9456 185.155 10.6328C185.449 10.3027 185.597 9.7988 185.597 9.12114H187.572C187.572 10.2506 187.252 11.1367 186.611 11.7797C185.969 12.4052 185.077 12.718 183.933 12.718Z" fill="#1C376E"/>
<path d="M198.493 27.5744C196.691 27.5744 195.261 27.0358 194.204 25.9584C193.164 24.8811 192.644 23.3434 192.644 21.3451V20.3547C192.644 19.3643 192.783 18.4868 193.06 17.7222C193.337 16.9577 193.727 16.3061 194.23 15.7674C194.732 15.2288 195.348 14.8205 196.076 14.5424C196.804 14.2644 197.609 14.1254 198.493 14.1254C199.256 14.1254 199.932 14.2297 200.521 14.4382C201.128 14.6467 201.648 14.9334 202.081 15.2983C202.532 15.6458 202.896 16.0628 203.173 16.5494C203.467 17.0359 203.684 17.5572 203.823 18.1132H201.327C201.136 17.6614 200.807 17.2618 200.339 16.9143C199.889 16.5494 199.23 16.3669 198.363 16.3669C197.375 16.3669 196.578 16.6971 195.972 17.3573C195.382 18.0176 195.088 19.0167 195.088 20.3547V21.3451C195.088 22.6657 195.391 23.6648 195.998 24.3425C196.604 25.0028 197.393 25.3329 198.363 25.3329C199.247 25.3329 199.915 25.1505 200.365 24.7856C200.816 24.4207 201.136 23.9341 201.327 23.326H203.823C203.563 24.5771 202.991 25.6022 202.107 26.4015C201.223 27.1834 200.019 27.5744 198.493 27.5744Z" fill="#1C376E"/>
<path d="M210.683 21.6579H208.889V27.3659H206.549V14.3339H208.889V19.5206H210.709L214.193 14.3339H216.948L212.633 20.5371L217.468 27.3659H214.609L210.683 21.6579Z" fill="#1C376E"/>
<path d="M228.641 17.1228L227.211 19.8074L222.818 27.3659H219.802V14.3339H222.142V24.5771L223.572 21.8925L227.965 14.3339H230.981V27.3659H228.641V17.1228Z" fill="#1C376E"/>
<path d="M243.721 17.1228L242.292 19.8074L237.898 27.3659H234.882V14.3339H237.222V24.5771L238.652 21.8925L243.046 14.3339H246.061V27.3659H243.721V17.1228ZM240.472 12.718C239.328 12.718 238.435 12.4052 237.794 11.7797C237.153 11.1367 236.832 10.2506 236.832 9.12114H238.86C238.86 9.7988 238.999 10.3027 239.276 10.6328C239.571 10.9456 239.969 11.102 240.472 11.102C240.992 11.102 241.399 10.9456 241.694 10.6328C241.988 10.3027 242.136 9.7988 242.136 9.12114H244.111C244.111 10.2506 243.791 11.1367 243.15 11.7797C242.508 12.4052 241.616 12.718 240.472 12.718Z" fill="#1C376E"/>
<path d="M255.032 14.3339H265.691V16.4712H261.532V27.3659H259.192V16.4712H255.032V14.3339Z" fill="#1C376E"/>
<path d="M272.728 27.5744C271.861 27.5744 271.064 27.4354 270.336 27.1574C269.625 26.862 269.01 26.445 268.49 25.9063C267.987 25.3677 267.589 24.7161 267.294 23.9515C267.017 23.187 266.878 22.3182 266.878 21.3451V20.3547C266.878 19.399 267.017 18.5389 267.294 17.7744C267.589 17.0098 267.996 16.3582 268.516 15.8196C269.036 15.2809 269.651 14.8639 270.362 14.5685C271.073 14.2731 271.861 14.1254 272.728 14.1254C273.594 14.1254 274.383 14.2731 275.093 14.5685C275.821 14.8465 276.437 15.2549 276.939 15.7935C277.459 16.3322 277.858 16.9924 278.135 17.7744C278.43 18.5389 278.577 19.399 278.577 20.3547V21.6058H269.322C269.357 22.8742 269.686 23.8299 270.31 24.4728C270.934 25.1157 271.74 25.4372 272.728 25.4372C273.75 25.4372 274.495 25.2547 274.963 24.8898C275.431 24.5249 275.795 24.0036 276.055 23.326H278.447C278.187 24.6118 277.606 25.6457 276.705 26.4276C275.804 27.1921 274.478 27.5744 272.728 27.5744ZM272.728 16.2627C271.792 16.2627 271.021 16.5407 270.414 17.0967C269.825 17.6354 269.469 18.4607 269.348 19.5728H276.081C275.977 18.426 275.639 17.5919 275.067 17.0706C274.496 16.532 273.716 16.2627 272.728 16.2627Z" fill="#1C376E"/>
<path d="M285.74 22.3877L282.282 27.3659H279.63L284.284 20.6935L279.89 14.3339H282.542L285.74 19.0515L288.989 14.3339H291.589L287.195 20.7196L291.849 27.3659H289.145L285.74 22.3877Z" fill="#1C376E"/>
<path d="M303.028 21.7882H296.528V27.3659H294.189V14.3339H296.528V19.651H303.028V14.3339H305.367V27.3659H303.028V21.7882Z" fill="#1C376E"/>
<path d="M318.108 17.1228L316.678 19.8074L312.285 27.3659H309.269V14.3339H311.609V24.5771L313.039 21.8925L317.432 14.3339H320.448V27.3659H318.108V17.1228Z" fill="#1C376E"/>
<path d="M328.483 21.6579H326.689V27.3659H324.349V14.3339H326.689V19.5206H328.509L331.993 14.3339H334.748L330.433 20.5371L335.268 27.3659H332.409L328.483 21.6579Z" fill="#1C376E"/>
<path d="M341.547 27.3659L336.296 14.3339H338.844L342.795 24.4207L346.539 14.3339H349.035L342.041 32.5787H339.546L341.547 27.3659Z" fill="#1C376E"/>
<path d="M354.976 19.8074L353.702 16.9924V27.3659H351.362V14.3339H354.794L358.304 21.7361L361.813 14.3339H365.141V27.3659H362.801V16.9664L361.501 19.8074L359.421 24.2382H357.082L354.976 19.8074Z" fill="#1C376E"/>
<path d="M150.01 42.5291H158.72V44.6663H152.35V55.5611H150.01V42.5291Z" fill="#1C376E"/>
<path d="M167.473 55.7696C165.757 55.7696 164.44 55.2049 163.521 54.0754V60.7739H161.181V42.5291H163.001L163.235 44.4057C163.686 43.7107 164.275 43.1894 165.003 42.8419C165.731 42.4943 166.563 42.3206 167.499 42.3206C168.226 42.3206 168.902 42.4596 169.526 42.7376C170.168 42.9982 170.714 43.3979 171.164 43.9365C171.615 44.4578 171.97 45.1094 172.23 45.8913C172.49 46.6559 172.62 47.5421 172.62 48.5499V49.5403C172.62 50.5481 172.49 51.443 172.23 52.2249C171.97 52.9894 171.606 53.641 171.138 54.1797C170.688 54.701 170.142 55.1006 169.5 55.3786C168.876 55.6393 168.2 55.7696 167.473 55.7696ZM166.849 53.5281C167.888 53.5281 168.703 53.2066 169.292 52.5637C169.882 51.9208 170.176 50.913 170.176 49.5403V48.5499C170.176 47.1945 169.882 46.1954 169.292 45.5525C168.703 44.8922 167.888 44.5621 166.849 44.5621C165.913 44.5621 165.133 44.8835 164.509 45.5264C163.885 46.1694 163.556 47.1163 163.521 48.3674V49.5403C163.521 50.8261 163.833 51.8165 164.457 52.5116C165.081 53.1892 165.878 53.5281 166.849 53.5281Z" fill="#1C376E"/>
<path d="M178.978 55.7696C177.626 55.7696 176.595 55.4307 175.884 54.7531C175.174 54.058 174.819 53.1111 174.819 51.9121C174.819 51.2518 174.923 50.661 175.131 50.1398C175.339 49.6011 175.668 49.1493 176.118 48.7844C176.586 48.4195 177.176 48.1415 177.886 47.9504C178.614 47.7593 179.498 47.6637 180.538 47.6637H183.138V46.6993C183.138 45.9695 182.921 45.4048 182.488 45.0052C182.072 44.6055 181.422 44.4057 180.538 44.4057C179.654 44.4057 179.013 44.5708 178.614 44.9009C178.233 45.2311 178.008 45.6568 177.938 46.178H175.339C175.408 45.066 175.858 44.1451 176.69 43.4153C177.54 42.6855 178.822 42.3206 180.538 42.3206C182.167 42.3206 183.398 42.7115 184.23 43.4935C185.061 44.2754 185.477 45.344 185.477 46.6993V55.5611H183.658L183.372 53.4238C182.904 54.171 182.288 54.7531 181.526 55.1701C180.781 55.5698 179.931 55.7696 178.978 55.7696ZM179.238 53.6845C179.81 53.6845 180.33 53.5889 180.798 53.3978C181.283 53.2066 181.699 52.9547 182.046 52.6419C182.392 52.3118 182.661 51.9295 182.852 51.4951C183.042 51.0607 183.138 50.6002 183.138 50.1137V49.6445H180.538C179.342 49.6445 178.493 49.8531 177.99 50.2701C177.505 50.6697 177.262 51.1997 177.262 51.86C177.262 52.416 177.436 52.8591 177.782 53.1892C178.129 53.5194 178.614 53.6845 179.238 53.6845Z" fill="#1C376E"/>
<path d="M198.854 55.5611H189.885V58.9494H187.545V53.4238H188.949C189.226 53.0415 189.452 52.6506 189.625 52.2509C189.815 51.8339 189.963 51.3561 190.067 50.8174C190.171 50.2788 190.24 49.6619 190.275 48.9669C190.327 48.2545 190.353 47.4117 190.353 46.4387V42.5291H199.504V53.4238H201.194V58.9494H198.854V55.5611ZM192.641 46.4387C192.641 47.4812 192.615 48.3761 192.563 49.1233C192.511 49.8704 192.433 50.5133 192.329 51.052C192.225 51.5907 192.095 52.0511 191.939 52.4334C191.8 52.7983 191.644 53.1284 191.471 53.4238H197.164V44.6663H192.641V46.4387Z" fill="#1C376E"/>
<path d="M208.728 55.7696C207.809 55.7696 206.977 55.6306 206.232 55.3526C205.504 55.0572 204.88 54.6488 204.36 54.1275C203.84 53.5889 203.442 52.9373 203.164 52.1727C202.887 51.3908 202.748 50.5133 202.748 49.5403V48.5499C202.748 47.5942 202.887 46.7341 203.164 45.9695C203.459 45.1876 203.866 44.5273 204.386 43.9887C204.906 43.45 205.53 43.0417 206.258 42.7637C207.003 42.4683 207.826 42.3206 208.728 42.3206C209.629 42.3206 210.444 42.4683 211.171 42.7637C211.917 43.0417 212.549 43.45 213.069 43.9887C213.589 44.51 213.988 45.1615 214.265 45.9435C214.56 46.708 214.707 47.5768 214.707 48.5499V49.5403C214.707 50.5133 214.56 51.3821 214.265 52.1467C213.988 52.9112 213.589 53.5628 213.069 54.1015C212.549 54.6401 211.917 55.0572 211.171 55.3526C210.444 55.6306 209.629 55.7696 208.728 55.7696ZM208.728 53.5281C209.82 53.5281 210.678 53.1979 211.301 52.5376C211.943 51.86 212.263 50.8609 212.263 49.5403V48.5499C212.263 47.2467 211.943 46.2562 211.301 45.5786C210.678 44.9009 209.82 44.5621 208.728 44.5621C207.636 44.5621 206.769 44.9009 206.128 45.5786C205.504 46.2389 205.192 47.2293 205.192 48.5499V49.5403C205.192 50.8435 205.504 51.8339 206.128 52.5116C206.769 53.1892 207.636 53.5281 208.728 53.5281Z" fill="#1C376E"/>
<path d="M222.891 55.7696C221.089 55.7696 219.659 55.2309 218.602 54.1536C217.562 53.0763 217.042 51.5385 217.042 49.5403V48.5499C217.042 47.5594 217.18 46.6819 217.458 45.9174C217.735 45.1529 218.125 44.5013 218.628 43.9626C219.13 43.424 219.745 43.0156 220.473 42.7376C221.201 42.4596 222.007 42.3206 222.891 42.3206C223.654 42.3206 224.33 42.4248 224.919 42.6333C225.526 42.8419 226.045 43.1286 226.479 43.4935C226.929 43.841 227.293 44.258 227.571 44.7445C227.865 45.2311 228.082 45.7523 228.221 46.3084H225.725C225.534 45.8566 225.205 45.4569 224.737 45.1094C224.286 44.7445 223.628 44.5621 222.761 44.5621C221.773 44.5621 220.976 44.8922 220.369 45.5525C219.78 46.2128 219.486 47.2119 219.486 48.5499V49.5403C219.486 50.8609 219.789 51.86 220.395 52.5376C221.002 53.1979 221.791 53.5281 222.761 53.5281C223.645 53.5281 224.312 53.3456 224.763 52.9807C225.214 52.6158 225.534 52.1293 225.725 51.5212H228.221C227.961 52.7722 227.389 53.7974 226.505 54.5967C225.621 55.3786 224.416 55.7696 222.891 55.7696Z" fill="#1C376E"/>
<path d="M229.01 42.5291H239.669V44.6663H235.509V55.5611H233.169V44.6663H229.01V42.5291Z" fill="#1C376E"/>
<path d="M248.435 55.7696C246.719 55.7696 245.402 55.2049 244.483 54.0754V60.7739H242.143V42.5291H243.963L244.197 44.4057C244.648 43.7107 245.237 43.1894 245.965 42.8419C246.693 42.4943 247.525 42.3206 248.461 42.3206C249.189 42.3206 249.864 42.4596 250.488 42.7376C251.13 42.9982 251.676 43.3979 252.126 43.9365C252.577 44.4578 252.932 45.1094 253.192 45.8913C253.452 46.6559 253.582 47.5421 253.582 48.5499V49.5403C253.582 50.5481 253.452 51.443 253.192 52.2249C252.932 52.9894 252.568 53.641 252.1 54.1797C251.65 54.701 251.104 55.1006 250.462 55.3786C249.839 55.6393 249.163 55.7696 248.435 55.7696ZM247.811 53.5281C248.851 53.5281 249.665 53.2066 250.254 52.5637C250.844 51.9208 251.138 50.913 251.138 49.5403V48.5499C251.138 47.1945 250.844 46.1954 250.254 45.5525C249.665 44.8922 248.851 44.5621 247.811 44.5621C246.875 44.5621 246.095 44.8835 245.471 45.5264C244.847 46.1694 244.518 47.1163 244.483 48.3674V49.5403C244.483 50.8261 244.795 51.8165 245.419 52.5116C246.043 53.1892 246.84 53.5281 247.811 53.5281Z" fill="#1C376E"/>
<path d="M261.89 55.7696C260.971 55.7696 260.14 55.6306 259.394 55.3526C258.666 55.0572 258.042 54.6488 257.523 54.1275C257.003 53.5889 256.604 52.9373 256.327 52.1727C256.049 51.3908 255.911 50.5133 255.911 49.5403V48.5499C255.911 47.5942 256.049 46.7341 256.327 45.9695C256.621 45.1876 257.029 44.5273 257.549 43.9887C258.068 43.45 258.692 43.0417 259.42 42.7637C260.166 42.4683 260.989 42.3206 261.89 42.3206C262.791 42.3206 263.606 42.4683 264.334 42.7637C265.079 43.0417 265.712 43.45 266.232 43.9887C266.752 44.51 267.15 45.1615 267.427 45.9435C267.722 46.708 267.869 47.5768 267.869 48.5499V49.5403C267.869 50.5133 267.722 51.3821 267.427 52.1467C267.15 52.9112 266.752 53.5628 266.232 54.1015C265.712 54.6401 265.079 55.0572 264.334 55.3526C263.606 55.6306 262.791 55.7696 261.89 55.7696ZM261.89 53.5281C262.982 53.5281 263.84 53.1979 264.464 52.5376C265.105 51.86 265.426 50.8609 265.426 49.5403V48.5499C265.426 47.2467 265.105 46.2562 264.464 45.5786C263.84 44.9009 262.982 44.5621 261.89 44.5621C260.798 44.5621 259.932 44.9009 259.29 45.5786C258.666 46.2389 258.354 47.2293 258.354 48.5499V49.5403C258.354 50.8435 258.666 51.8339 259.29 52.5116C259.932 53.1892 260.798 53.5281 261.89 53.5281Z" fill="#1C376E"/>
<path d="M279.823 45.3179L278.393 48.0025L274 55.5611H270.984V42.5291H273.324V52.7722L274.754 50.0876L279.147 42.5291H282.163V55.5611H279.823V45.3179Z" fill="#1C376E"/>
<path d="M284.635 42.5291H295.293V44.6663H291.134V55.5611H288.794V44.6663H284.635V42.5291Z" fill="#1C376E"/>
<path d="M302.33 55.7696C301.463 55.7696 300.666 55.6306 299.938 55.3526C299.228 55.0572 298.612 54.6401 298.092 54.1015C297.59 53.5628 297.191 52.9112 296.897 52.1467C296.619 51.3821 296.481 50.5133 296.481 49.5403V48.5499C296.481 47.5942 296.619 46.7341 296.897 45.9695C297.191 45.205 297.599 44.5534 298.118 44.0147C298.638 43.4761 299.254 43.0591 299.964 42.7637C300.675 42.4683 301.463 42.3206 302.33 42.3206C303.197 42.3206 303.985 42.4683 304.696 42.7637C305.424 43.0417 306.039 43.45 306.542 43.9887C307.061 44.5273 307.46 45.1876 307.737 45.9695C308.032 46.7341 308.179 47.5942 308.179 48.5499V49.8009H298.924C298.959 51.0694 299.288 52.0251 299.912 52.668C300.536 53.3109 301.342 53.6323 302.33 53.6323C303.353 53.6323 304.098 53.4499 304.566 53.085C305.034 52.7201 305.398 52.1988 305.658 51.5212H308.049C307.789 52.807 307.209 53.8408 306.308 54.6228C305.406 55.3873 304.08 55.7696 302.33 55.7696ZM302.33 44.4578C301.394 44.4578 300.623 44.7358 300.016 45.2919C299.427 45.8305 299.072 46.6559 298.95 47.7679H305.684C305.58 46.6211 305.242 45.7871 304.67 45.2658C304.098 44.7271 303.318 44.4578 302.33 44.4578Z" fill="#1C376E"/>
<path d="M309.486 53.5281H309.876C310.154 53.5281 310.414 53.4586 310.656 53.3196C310.916 53.1806 311.142 52.9373 311.332 52.5898C311.523 52.2423 311.67 51.7731 311.774 51.1823C311.895 50.5915 311.956 49.8444 311.956 48.9408V42.5291H321.315V55.5611H318.975V44.6663H314.296V48.9408C314.296 50.2266 314.192 51.304 313.984 52.1727C313.776 53.0415 313.481 53.7453 313.1 54.2839C312.719 54.8226 312.251 55.2049 311.696 55.4307C311.159 55.6566 310.552 55.7696 309.876 55.7696H309.486V53.5281Z" fill="#1C376E"/>
<path d="M325.213 42.5291H327.552V46.6993H330.022C331.981 46.6993 333.402 47.099 334.286 47.8983C335.17 48.6802 335.612 49.7575 335.612 51.1302C335.612 52.5203 335.17 53.6063 334.286 54.3882C333.402 55.1701 331.981 55.5611 330.022 55.5611H325.213V42.5291ZM327.552 48.8366V53.4238H330.152C331.296 53.4238 332.093 53.2327 332.544 52.8504C332.995 52.4508 333.22 51.8774 333.22 51.1302C333.22 50.383 332.995 49.8183 332.544 49.436C332.093 49.0364 331.296 48.8366 330.152 48.8366H327.552Z" fill="#1C376E"/>
<path d="M343.535 55.7696C341.732 55.7696 340.302 55.2309 339.245 54.1536C338.205 53.0763 337.685 51.5385 337.685 49.5403V48.5499C337.685 47.5594 337.824 46.6819 338.101 45.9174C338.379 45.1529 338.769 44.5013 339.271 43.9626C339.774 43.424 340.389 43.0156 341.117 42.7376C341.845 42.4596 342.651 42.3206 343.535 42.3206C344.297 42.3206 344.973 42.4248 345.562 42.6333C346.169 42.8419 346.689 43.1286 347.122 43.4935C347.573 43.841 347.937 44.258 348.214 44.7445C348.509 45.2311 348.725 45.7523 348.864 46.3084H346.368C346.178 45.8566 345.848 45.4569 345.38 45.1094C344.93 44.7445 344.271 44.5621 343.405 44.5621C342.417 44.5621 341.62 44.8922 341.013 45.5525C340.424 46.2128 340.129 47.2119 340.129 48.5499V49.5403C340.129 50.8609 340.432 51.86 341.039 52.5376C341.646 53.1979 342.434 53.5281 343.405 53.5281C344.289 53.5281 344.956 53.3456 345.406 52.9807C345.857 52.6158 346.178 52.1293 346.368 51.5212H348.864C348.604 52.7722 348.032 53.7974 347.148 54.5967C346.264 55.3786 345.06 55.7696 343.535 55.7696Z" fill="#1C376E"/>
<path d="M349.653 42.5291H360.312V44.6663H356.152V55.5611H353.813V44.6663H349.653V42.5291Z" fill="#1C376E"/>
<path d="M362.787 42.5291H367.726C369.477 42.5291 370.733 42.8592 371.496 43.5195C372.276 44.1798 372.666 45.0573 372.666 46.152C372.666 46.6906 372.536 47.1859 372.276 47.6376C372.016 48.0894 371.609 48.4717 371.054 48.7844C371.782 49.0798 372.319 49.4969 372.666 50.0355C373.012 50.5568 373.186 51.1389 373.186 51.7818C373.186 52.9634 372.796 53.893 372.016 54.5706C371.253 55.2309 369.997 55.5611 368.246 55.5611H362.787V42.5291ZM365.127 49.9313V53.4238H368.246C369.182 53.4238 369.832 53.2761 370.196 52.9807C370.56 52.668 370.742 52.2249 370.742 51.6515C370.742 51.0954 370.56 50.6697 370.196 50.3743C369.832 50.0789 369.182 49.9313 368.246 49.9313H365.127ZM365.127 44.6663V47.8983H367.726C368.68 47.8983 369.329 47.7593 369.676 47.4812C370.04 47.1858 370.222 46.7862 370.222 46.2823C370.222 45.7784 370.04 45.3874 369.676 45.1094C369.329 44.814 368.68 44.6663 367.726 44.6663H365.127Z" fill="#1C376E"/>
<path d="M379.543 55.7696C378.191 55.7696 377.16 55.4307 376.449 54.7531C375.739 54.058 375.383 53.1111 375.383 51.9121C375.383 51.2518 375.487 50.661 375.695 50.1398C375.903 49.6011 376.233 49.1493 376.683 48.7844C377.151 48.4195 377.74 48.1415 378.451 47.9504C379.179 47.7593 380.063 47.6637 381.103 47.6637H383.702V46.6993C383.702 45.9695 383.486 45.4048 383.052 45.0052C382.637 44.6055 381.987 44.4057 381.103 44.4057C380.219 44.4057 379.578 44.5708 379.179 44.9009C378.798 45.2311 378.572 45.6568 378.503 46.178H375.903C375.973 45.066 376.423 44.1451 377.255 43.4153C378.104 42.6855 379.387 42.3206 381.103 42.3206C382.732 42.3206 383.962 42.7115 384.794 43.4935C385.626 44.2754 386.042 45.344 386.042 46.6993V55.5611H384.222L383.936 53.4238C383.468 54.171 382.853 54.7531 382.091 55.1701C381.345 55.5698 380.496 55.7696 379.543 55.7696ZM379.803 53.6845C380.375 53.6845 380.895 53.5889 381.363 53.3978C381.848 53.2066 382.264 52.9547 382.611 52.6419C382.957 52.3118 383.226 51.9295 383.416 51.4951C383.607 51.0607 383.702 50.6002 383.702 50.1137V49.6445H381.103C379.907 49.6445 379.058 49.8531 378.555 50.2701C378.07 50.6697 377.827 51.1997 377.827 51.86C377.827 52.416 378 52.8591 378.347 53.1892C378.694 53.5194 379.179 53.6845 379.803 53.6845Z" fill="#1C376E"/>
<path d="M158.85 73.5131L157.42 76.1977L153.026 83.7562H150.01V70.7243H152.35V80.9674L153.78 78.2828L158.174 70.7243H161.189V83.7562H158.85V73.5131Z" fill="#1C376E"/>
<path d="M179.909 72.8615H173.93V83.7562H171.59V70.7243H182.249V83.7562H179.909V72.8615Z" fill="#1C376E"/>
<path d="M192.429 83.9647C190.713 83.9647 189.396 83.4 188.477 82.2706V88.969H186.138V70.7243H187.957L188.191 72.6009C188.642 71.9058 189.231 71.3845 189.959 71.037C190.687 70.6895 191.519 70.5157 192.455 70.5157C193.183 70.5157 193.859 70.6547 194.483 70.9328C195.124 71.1934 195.67 71.5931 196.12 72.1317C196.571 72.653 196.926 73.3046 197.186 74.0865C197.446 74.851 197.576 75.7372 197.576 76.745V77.7355C197.576 78.7433 197.446 79.6381 197.186 80.42C196.926 81.1846 196.562 81.8362 196.094 82.3748C195.644 82.8961 195.098 83.2958 194.457 83.5738C193.833 83.8344 193.157 83.9647 192.429 83.9647ZM191.805 81.7232C192.845 81.7232 193.659 81.4018 194.249 80.7589C194.838 80.116 195.133 79.1082 195.133 77.7355V76.745C195.133 75.3897 194.838 74.3906 194.249 73.7477C193.659 73.0874 192.845 72.7572 191.805 72.7572C190.869 72.7572 190.089 73.0787 189.465 73.7216C188.841 74.3645 188.512 75.3115 188.477 76.5626V77.7355C188.477 79.0213 188.789 80.0117 189.413 80.7067C190.037 81.3844 190.834 81.7232 191.805 81.7232Z" fill="#1C376E"/>
<path d="M205.754 83.9647C204.888 83.9647 204.09 83.8257 203.363 83.5477C202.652 83.2523 202.037 82.8353 201.517 82.2966C201.014 81.758 200.615 81.1064 200.321 80.3419C200.044 79.5773 199.905 78.7085 199.905 77.7355V76.745C199.905 75.7894 200.044 74.9292 200.321 74.1647C200.615 73.4002 201.023 72.7486 201.543 72.2099C202.063 71.6713 202.678 71.2542 203.389 70.9588C204.099 70.6634 204.888 70.5157 205.754 70.5157C206.621 70.5157 207.409 70.6634 208.12 70.9588C208.848 71.2368 209.463 71.6452 209.966 72.1838C210.486 72.7225 210.884 73.3828 211.162 74.1647C211.456 74.9292 211.604 75.7894 211.604 76.745V77.9961H202.349C202.383 79.2645 202.713 80.2202 203.337 80.8631C203.96 81.506 204.766 81.8275 205.754 81.8275C206.777 81.8275 207.522 81.645 207.99 81.2802C208.458 80.9153 208.822 80.394 209.082 79.7163H211.474C211.214 81.0021 210.633 82.036 209.732 82.8179C208.831 83.5825 207.505 83.9647 205.754 83.9647ZM205.754 72.653C204.818 72.653 204.047 72.931 203.441 73.487C202.851 74.0257 202.496 74.8511 202.375 75.9631H209.108C209.004 74.8163 208.666 73.9823 208.094 73.461C207.522 72.9223 206.742 72.653 205.754 72.653Z" fill="#1C376E"/>
<path d="M224.089 83.7562H215.12V87.1445H212.781V81.619H214.185C214.462 81.2367 214.687 80.8458 214.86 80.4461C215.051 80.0291 215.198 79.5512 215.302 79.0126C215.406 78.4739 215.476 77.8571 215.51 77.162C215.562 76.4496 215.588 75.6069 215.588 74.6339V70.7243H224.739V81.619H226.429V87.1445H224.089V83.7562ZM217.876 74.6339C217.876 75.6764 217.85 76.5713 217.798 77.3184C217.746 78.0656 217.668 78.7085 217.564 79.2472C217.46 79.7858 217.33 80.2463 217.174 80.6286C217.036 80.9935 216.88 81.3236 216.706 81.619H222.4V72.8615H217.876V74.6339Z" fill="#1C376E"/>
<path d="M237.083 72.8615H231.104V83.7562H228.764V70.7243H239.423V83.7562H237.083V72.8615Z" fill="#1C376E"/>
<path d="M249.603 83.9647C247.887 83.9647 246.569 83.4 245.651 82.2706V88.969H243.311V70.7243H245.131L245.365 72.6009C245.816 71.9058 246.405 71.3845 247.133 71.037C247.861 70.6895 248.693 70.5157 249.629 70.5157C250.356 70.5157 251.032 70.6547 251.656 70.9328C252.298 71.1934 252.844 71.5931 253.294 72.1317C253.745 72.653 254.1 73.3046 254.36 74.0865C254.62 74.851 254.75 75.7372 254.75 76.745V77.7355C254.75 78.7433 254.62 79.6381 254.36 80.42C254.1 81.1846 253.736 81.8362 253.268 82.3748C252.818 82.8961 252.272 83.2958 251.63 83.5738C251.006 83.8344 250.33 83.9647 249.603 83.9647ZM248.979 81.7232C250.018 81.7232 250.833 81.4018 251.422 80.7589C252.012 80.116 252.306 79.1082 252.306 77.7355V76.745C252.306 75.3897 252.012 74.3906 251.422 73.7477C250.833 73.0874 250.018 72.7572 248.979 72.7572C248.043 72.7572 247.263 73.0787 246.639 73.7216C246.015 74.3645 245.686 75.3115 245.651 76.5626V77.7355C245.651 79.0213 245.963 80.0117 246.587 80.7067C247.211 81.3844 248.008 81.7232 248.979 81.7232Z" fill="#1C376E"/>
<path d="M266.698 73.5131L265.268 76.1977L260.874 83.7562H257.858V70.7243H260.198V80.9674L261.628 78.2828L266.022 70.7243H269.037V83.7562H266.698V73.5131Z" fill="#1C376E"/>
<path d="M281.778 78.1785H275.279V83.7562H272.939V70.7243H275.279V76.0413H281.778V70.7243H284.118V83.7562H281.778V78.1785Z" fill="#1C376E"/>
<path d="M296.858 73.5131L295.429 76.1977L291.035 83.7562H288.019V70.7243H290.359V80.9674L291.789 78.2828L296.182 70.7243H299.198V83.7562H296.858V73.5131Z" fill="#1C376E"/>
<path d="M306.713 76.1977L305.44 73.3828V83.7562H303.1V70.7243H306.531L310.041 78.1264L313.551 70.7243H316.878V83.7562H314.539V73.3567L313.239 76.1977L311.159 80.6286H308.819L306.713 76.1977Z" fill="#1C376E"/>
<path d="M324.019 83.9647C322.668 83.9647 321.636 83.6259 320.926 82.9482C320.215 82.2532 319.86 81.3062 319.86 80.1073C319.86 79.447 319.964 78.8562 320.172 78.3349C320.38 77.7963 320.709 77.3445 321.16 76.9796C321.628 76.6147 322.217 76.3367 322.928 76.1456C323.655 75.9544 324.539 75.8589 325.579 75.8589H328.179V74.8945C328.179 74.1647 327.962 73.6 327.529 73.2003C327.113 72.8007 326.463 72.6009 325.579 72.6009C324.695 72.6009 324.054 72.7659 323.655 73.0961C323.274 73.4262 323.049 73.8519 322.98 74.3732H320.38C320.449 73.2611 320.9 72.3402 321.732 71.6104C322.581 70.8806 323.863 70.5157 325.579 70.5157C327.208 70.5157 328.439 70.9067 329.271 71.6886C330.103 72.4705 330.519 73.5392 330.519 74.8945V83.7562H328.699L328.413 81.619C327.945 82.3662 327.33 82.9482 326.567 83.3653C325.822 83.7649 324.973 83.9647 324.019 83.9647ZM324.279 81.8796C324.851 81.8796 325.371 81.7841 325.839 81.5929C326.325 81.4018 326.74 81.1498 327.087 80.8371C327.434 80.5069 327.702 80.1247 327.893 79.6903C328.084 79.2559 328.179 78.7954 328.179 78.3089V77.8397H325.579C324.383 77.8397 323.534 78.0482 323.032 78.4652C322.546 78.8649 322.304 79.3949 322.304 80.0551C322.304 80.6112 322.477 81.0543 322.824 81.3844C323.17 81.7146 323.655 81.8796 324.279 81.8796Z" fill="#1C376E"/>
<path d="M332.592 70.7243H343.251V72.8615H339.092V83.7562H336.752V72.8615H332.592V70.7243Z" fill="#1C376E"/>
<path d="M350.288 83.9647C349.421 83.9647 348.624 83.8257 347.896 83.5477C347.185 83.2523 346.57 82.8353 346.05 82.2966C345.548 81.758 345.149 81.1064 344.854 80.3419C344.577 79.5773 344.438 78.7085 344.438 77.7355V76.745C344.438 75.7894 344.577 74.9292 344.854 74.1647C345.149 73.4002 345.556 72.7486 346.076 72.2099C346.596 71.6713 347.211 71.2542 347.922 70.9588C348.633 70.6634 349.421 70.5157 350.288 70.5157C351.154 70.5157 351.943 70.6634 352.654 70.9588C353.382 71.2368 353.997 71.6452 354.499 72.1838C355.019 72.7225 355.418 73.3828 355.695 74.1647C355.99 74.9292 356.137 75.7894 356.137 76.745V77.9961H346.882C346.917 79.2645 347.246 80.2202 347.87 80.8631C348.494 81.506 349.3 81.8275 350.288 81.8275C351.31 81.8275 352.056 81.645 352.524 81.2802C352.992 80.9153 353.355 80.394 353.615 79.7163H356.007C355.747 81.0021 355.167 82.036 354.265 82.8179C353.364 83.5825 352.038 83.9647 350.288 83.9647ZM350.288 72.653C349.352 72.653 348.581 72.931 347.974 73.487C347.385 74.0257 347.029 74.8511 346.908 75.9631H353.641C353.537 74.8163 353.2 73.9823 352.628 73.461C352.056 72.9223 351.276 72.653 350.288 72.653Z" fill="#1C376E"/>
<path d="M357.444 81.7232H357.834C358.111 81.7232 358.371 81.6537 358.614 81.5147C358.874 81.3757 359.099 81.1325 359.29 80.7849C359.481 80.4374 359.628 79.9683 359.732 79.3775C359.853 78.7867 359.914 78.0395 359.914 77.136V70.7243H369.273V83.7562H366.933V72.8615H362.254V77.136C362.254 78.4218 362.15 79.4991 361.942 80.3679C361.734 81.2367 361.439 81.9404 361.058 82.4791C360.677 83.0178 360.209 83.4 359.654 83.6259C359.117 83.8518 358.51 83.9647 357.834 83.9647H357.444V81.7232Z" fill="#1C376E"/>
<path d="M373.17 70.7243H375.51V74.8945H377.98C379.938 74.8945 381.36 75.2941 382.244 76.0934C383.127 76.8753 383.569 77.9527 383.569 79.3254C383.569 80.7154 383.127 81.8014 382.244 82.5834C381.36 83.3653 379.938 83.7562 377.98 83.7562H373.17V70.7243ZM375.51 77.0317V81.619H378.11C379.254 81.619 380.051 81.4279 380.502 81.0456C380.952 80.6459 381.178 80.0725 381.178 79.3254C381.178 78.5782 380.952 78.0135 380.502 77.6312C380.051 77.2316 379.254 77.0317 378.11 77.0317H375.51Z" fill="#1C376E"/>
<path d="M391.492 83.9647C389.69 83.9647 388.26 83.4261 387.203 82.3488C386.163 81.2715 385.643 79.7337 385.643 77.7355V76.745C385.643 75.7546 385.782 74.8771 386.059 74.1126C386.336 73.348 386.726 72.6964 387.229 72.1578C387.731 71.6191 388.347 71.2108 389.075 70.9328C389.803 70.6547 390.609 70.5157 391.492 70.5157C392.255 70.5157 392.931 70.62 393.52 70.8285C394.127 71.037 394.647 71.3237 395.08 71.6886C395.531 72.0361 395.895 72.4532 396.172 72.9397C396.467 73.4262 396.683 73.9475 396.822 74.5035H394.326C394.136 74.0518 393.806 73.6521 393.338 73.3046C392.888 72.9397 392.229 72.7572 391.362 72.7572C390.375 72.7572 389.577 73.0874 388.971 73.7477C388.381 74.408 388.087 75.4071 388.087 76.745V77.7355C388.087 79.056 388.39 80.0551 388.997 80.7328C389.603 81.3931 390.392 81.7232 391.362 81.7232C392.246 81.7232 392.914 81.5408 393.364 81.1759C393.815 80.811 394.136 80.3245 394.326 79.7163H396.822C396.562 80.9674 395.99 81.9926 395.106 82.7919C394.222 83.5738 393.018 83.9647 391.492 83.9647Z" fill="#1C376E"/>
<path d="M397.611 70.7243H408.27V72.8615H404.11V83.7562H401.771V72.8615H397.611V70.7243Z" fill="#1C376E"/>
<path d="M410.745 70.7243H415.684C417.435 70.7243 418.691 71.0544 419.454 71.7147C420.234 72.375 420.624 73.2525 420.624 74.3471C420.624 74.8858 420.494 75.381 420.234 75.8328C419.974 76.2846 419.566 76.6668 419.012 76.9796C419.74 77.275 420.277 77.692 420.624 78.2307C420.97 78.752 421.144 79.334 421.144 79.977C421.144 81.1585 420.754 82.0881 419.974 82.7658C419.211 83.4261 417.955 83.7562 416.204 83.7562H410.745V70.7243ZM413.084 78.1264V81.619H416.204C417.14 81.619 417.79 81.4713 418.154 81.1759C418.518 80.8631 418.7 80.42 418.7 79.8466C418.7 79.2906 418.518 78.8649 418.154 78.5695C417.79 78.2741 417.14 78.1264 416.204 78.1264H413.084ZM413.084 72.8615V76.0934H415.684C416.637 76.0934 417.287 75.9544 417.634 75.6764C417.998 75.381 418.18 74.9814 418.18 74.4775C418.18 73.9736 417.998 73.5826 417.634 73.3046C417.287 73.0092 416.637 72.8615 415.684 72.8615H413.084Z" fill="#1C376E"/>
<path d="M427.501 83.9647C426.149 83.9647 425.118 83.6259 424.407 82.9482C423.696 82.2532 423.341 81.3062 423.341 80.1073C423.341 79.447 423.445 78.8562 423.653 78.3349C423.861 77.7963 424.19 77.3445 424.641 76.9796C425.109 76.6147 425.698 76.3367 426.409 76.1456C427.137 75.9544 428.021 75.8589 429.061 75.8589H431.66V74.8945C431.66 74.1647 431.444 73.6 431.01 73.2003C430.594 72.8007 429.944 72.6009 429.061 72.6009C428.177 72.6009 427.535 72.7659 427.137 73.0961C426.755 73.4262 426.53 73.8519 426.461 74.3732H423.861C423.93 73.2611 424.381 72.3402 425.213 71.6104C426.062 70.8806 427.345 70.5157 429.061 70.5157C430.69 70.5157 431.92 70.9067 432.752 71.6886C433.584 72.4705 434 73.5392 434 74.8945V83.7562H432.18L431.894 81.619C431.426 82.3662 430.811 82.9482 430.048 83.3653C429.303 83.7649 428.454 83.9647 427.501 83.9647ZM427.761 81.8796C428.333 81.8796 428.853 81.7841 429.32 81.5929C429.806 81.4018 430.222 81.1498 430.568 80.8371C430.915 80.5069 431.184 80.1247 431.374 79.6903C431.565 79.2559 431.66 78.7954 431.66 78.3089V77.8397H429.061C427.865 77.8397 427.015 78.0482 426.513 78.4652C426.028 78.8649 425.785 79.3949 425.785 80.0551C425.785 80.6112 425.958 81.0543 426.305 81.3844C426.651 81.7146 427.137 81.8796 427.761 81.8796Z" fill="#1C376E"/>
</svg>
